<svg width="500" height="500" viewBox="0 0 500 500" fill="none" xmlns="http://www.w3.org/2000/svg">
<path d="M26 220.45C26 157.326 77.1563 106.154 140.261 106.154H274.472C337.576 106.154 388.733 157.326 388.733 220.45V354.703C388.733 417.828 337.576 469 274.472 469H140.261C77.1563 469 26 417.828 26 354.703V220.45Z" fill="#00A3FF"/>
<path d="M401.125 256.992C407.048 262.917 417.163 260.207 419.331 252.112L474.618 45.7143C476.786 37.6202 469.382 30.2137 461.29 32.3825L254.956 87.6867C246.865 89.8555 244.155 99.973 250.078 105.898L280.438 136.267C284.261 140.092 284.697 146.146 281.461 150.479L101.493 391.472C93.9769 401.537 106.662 414.226 116.724 406.707L357.641 226.683C361.974 223.446 368.025 223.882 371.849 227.707L401.125 256.992Z" fill="#59D783"/>
</svg>
