<svg width="155" height="29" viewBox="0 0 155 29" fill="none" xmlns="http://www.w3.org/2000/svg">
<path d="M14.5606 5.23365V19.6261C14.5606 21.6235 13.9545 23.1802 12.7423 24.2964C11.5301 25.393 9.90689 25.9413 7.87279 25.9413C5.81814 25.9413 4.15391 25.3734 2.88003 24.2376C1.6267 23.1019 1 21.5158 1 19.4793H5.31474C5.33528 20.3605 5.55105 21.0458 5.96198 21.5354C6.39346 22.0249 7.00988 22.2697 7.81119 22.2697C8.59196 22.2697 9.18778 22.0347 9.59871 21.5647C10.0096 21.0948 10.2151 20.4486 10.2151 19.6261V5.23365H14.5606Z" fill="white"/>
<path d="M27.1755 26C25.5318 26 24.0525 25.6573 22.7375 24.972C21.4225 24.267 20.3849 23.2781 19.6247 22.0053C18.885 20.7325 18.5152 19.264 18.5152 17.5995C18.5152 15.9351 18.8953 14.4665 19.6555 13.1937C20.4363 11.9209 21.4944 10.9418 22.83 10.2564C24.1655 9.55147 25.6551 9.199 27.2988 9.199C28.9425 9.199 30.4322 9.55147 31.7677 10.2564C33.1032 10.9418 34.1511 11.9209 34.9113 13.1937C35.692 14.4665 36.0824 15.9351 36.0824 17.5995C36.0824 19.264 35.6818 20.7325 34.8804 22.0053C34.0997 23.2781 33.0313 24.267 31.6752 24.972C30.3397 25.6573 28.8398 26 27.1755 26ZM27.1755 22.4165C27.9563 22.4165 28.6857 22.2403 29.3637 21.8878C30.0623 21.5158 30.6171 20.9675 31.028 20.243C31.4389 19.5184 31.6444 18.6374 31.6444 17.5995C31.6444 16.0526 31.2129 14.8679 30.3499 14.0455C29.5075 13.2035 28.47 12.7825 27.2372 12.7825C26.0044 12.7825 24.9668 13.2035 24.1244 14.0455C23.3025 14.8679 22.8916 16.0526 22.8916 17.5995C22.8916 19.1465 23.2923 20.3409 24.0936 21.1829C24.9154 22.0053 25.9427 22.4165 27.1755 22.4165Z" fill="white"/>
<path d="M43.5625 11.8425C44.1172 11.0593 44.8775 10.4229 45.8431 9.93331C46.8294 9.44377 47.9493 9.199 49.2026 9.199C50.6614 9.199 51.9764 9.54168 53.1475 10.227C54.3392 10.9124 55.2741 11.8915 55.9521 13.1643C56.6507 14.4176 57 15.8763 57 17.5408C57 19.2052 56.6507 20.6835 55.9521 21.9759C55.2741 23.2488 54.3392 24.2376 53.1475 24.9426C51.9764 25.6475 50.6614 26 49.2026 26C47.9287 26 46.8088 25.765 45.8431 25.295C44.898 24.8055 44.1378 24.1789 43.5625 23.4152V25.7356H39.2475V4H43.5625V11.8425ZM52.5928 17.5408C52.5928 16.5617 52.377 15.7197 51.9455 15.0148C51.5346 14.2902 50.9798 13.742 50.2813 13.3699C49.6032 12.9979 48.8635 12.8119 48.0622 12.8119C47.2814 12.8119 46.5417 13.0077 45.8431 13.3993C45.1651 13.7713 44.6103 14.3196 44.1788 15.0441C43.7679 15.7687 43.5625 16.6204 43.5625 17.5995C43.5625 18.5786 43.7679 19.4303 44.1788 20.1549C44.6103 20.8794 45.1651 21.4375 45.8431 21.8291C46.5417 22.2011 47.2814 22.3872 48.0622 22.3872C48.8635 22.3872 49.6032 22.1913 50.2813 21.7997C50.9798 21.4081 51.5346 20.85 51.9455 20.1255C52.377 19.4009 52.5928 18.5395 52.5928 17.5408Z" fill="white"/>
<path d="M59 15.4553C59 13.4384 59.4708 11.6369 60.4125 10.0508C61.3746 8.44509 62.6746 7.20162 64.3123 6.32044C65.9704 5.41967 67.8231 4.96931 69.8702 4.96931C72.2653 4.96931 74.3639 5.55675 76.1654 6.73166C77.9668 7.90657 79.2258 9.5319 79.9423 11.6076H74.9984C74.5071 10.6285 73.8111 9.89414 72.9104 9.4046C72.0301 8.91505 71.0064 8.67029 69.8395 8.67029C68.5908 8.67029 67.4751 8.95422 66.4925 9.5221C65.5303 10.0704 64.7729 10.8537 64.2202 11.8719C63.6879 12.8902 63.4218 14.0846 63.4218 15.4553C63.4218 16.8065 63.6879 18.0009 64.2202 19.0387C64.7729 20.057 65.5303 20.85 66.4925 21.4179C67.4751 21.9662 68.5908 22.2403 69.8395 22.2403C71.0064 22.2403 72.0301 21.9955 72.9104 21.506C73.8111 20.9969 74.5071 20.2528 74.9984 19.2737H79.9423C79.2258 21.3689 77.9668 23.004 76.1654 24.1789C74.3844 25.3342 72.2858 25.9119 69.8702 25.9119C67.8231 25.9119 65.9704 25.4713 64.3123 24.5901C62.6746 23.6893 61.3746 22.4459 60.4125 20.8598C59.4708 19.2737 59 17.4723 59 15.4553Z" fill="white"/>
<path d="M82.5088 17.5408C82.5088 15.8959 82.8466 14.4371 83.5221 13.1643C84.2181 11.8915 85.1495 10.9124 86.3164 10.227C87.5037 9.54168 88.8241 9.199 90.2776 9.199C91.5468 9.199 92.6521 9.44377 93.5938 9.93331C94.5559 10.4229 95.3236 11.0397 95.8968 11.7838V9.46335H100.226V25.7356H95.8968V23.3565C95.344 24.1202 94.5764 24.7565 93.5938 25.2657C92.6317 25.7552 91.516 26 90.2468 26C88.8139 26 87.5037 25.6475 86.3164 24.9426C85.1495 24.2376 84.2181 23.2488 83.5221 21.9759C82.8466 20.6835 82.5088 19.2052 82.5088 17.5408ZM95.8968 17.5995C95.8968 16.6009 95.6921 15.7491 95.2827 15.0441C94.8732 14.3196 94.3205 13.7713 93.6245 13.3993C92.9285 13.0077 92.1814 12.8119 91.383 12.8119C90.5847 12.8119 89.8477 12.9979 89.1722 13.3699C88.4966 13.742 87.9439 14.2902 87.514 15.0148C87.1046 15.7197 86.8999 16.5617 86.8999 17.5408C86.8999 18.5199 87.1046 19.3814 87.514 20.1255C87.9439 20.85 88.4966 21.4081 89.1722 21.7997C89.8682 22.1913 90.6051 22.3872 91.383 22.3872C92.1814 22.3872 92.9285 22.2011 93.6245 21.8291C94.3205 21.4375 94.8732 20.8892 95.2827 20.1842C95.6921 19.4597 95.8968 18.5982 95.8968 17.5995Z" fill="white"/>
<path d="M103.319 17.5408C103.319 15.8959 103.657 14.4371 104.333 13.1643C105.029 11.8915 105.97 10.9124 107.158 10.227C108.345 9.54168 109.665 9.199 111.119 9.199C112.224 9.199 113.279 9.43397 114.282 9.90393C115.285 10.3543 116.083 10.9614 116.677 11.7251V4H121.037V25.7356H116.677V23.3271C116.144 24.1299 115.397 24.7761 114.435 25.2657C113.473 25.7552 112.357 26 111.088 26C109.655 26 108.345 25.6475 107.158 24.9426C105.97 24.2376 105.029 23.2488 104.333 21.9759C103.657 20.6835 103.319 19.2052 103.319 17.5408ZM116.707 17.5995C116.707 16.6009 116.503 15.7491 116.093 15.0441C115.684 14.3196 115.131 13.7713 114.435 13.3993C113.739 13.0077 112.992 12.8119 112.194 12.8119C111.395 12.8119 110.658 12.9979 109.983 13.3699C109.307 13.742 108.754 14.2902 108.325 15.0148C107.915 15.7197 107.71 16.5617 107.71 17.5408C107.71 18.5199 107.915 19.3814 108.325 20.1255C108.754 20.85 109.307 21.4081 109.983 21.7997C110.679 22.1913 111.416 22.3872 112.194 22.3872C112.992 22.3872 113.739 22.2011 114.435 21.8291C115.131 21.4375 115.684 20.8892 116.093 20.1842C116.503 19.4597 116.707 18.5982 116.707 17.5995Z" fill="white"/>
<path d="M141.049 17.2471C141.049 17.8345 141.009 18.3632 140.927 18.8331H128.491C128.593 20.008 129.023 20.9283 129.78 21.5941C130.538 22.2599 131.469 22.5928 132.574 22.5928C134.171 22.5928 135.307 21.9368 135.983 20.6248H140.62C140.128 22.1914 139.187 23.4837 137.795 24.502C136.403 25.5007 134.693 26 132.667 26C131.029 26 129.555 25.6573 128.245 24.972C126.955 24.267 125.942 23.2781 125.205 22.0053C124.488 20.7325 124.13 19.264 124.13 17.5995C124.13 15.9155 124.488 14.4371 125.205 13.1643C125.921 11.8915 126.924 10.9124 128.214 10.227C129.504 9.54168 130.988 9.199 132.667 9.199C134.284 9.199 135.727 9.53189 136.996 10.1977C138.286 10.8634 139.279 11.8132 139.975 13.0468C140.691 14.2609 141.049 15.6609 141.049 17.2471ZM136.597 16.0722C136.577 15.0147 136.177 14.1728 135.399 13.5461C134.622 12.8999 133.67 12.5769 132.544 12.5769C131.479 12.5769 130.579 12.8901 129.842 13.5168C129.125 14.1238 128.685 14.9756 128.521 16.0722H136.597Z" fill="white"/>
<path d="M149.192 12.8412V20.7129C149.192 21.2612 149.325 21.6626 149.592 21.9172C149.878 22.1522 150.349 22.2697 151.004 22.2697H153V25.7356H150.298C146.674 25.7356 144.863 24.0516 144.863 20.6836V12.8412H142.836V9.46335H144.863V5.43926H149.192V9.46335H153V12.8412H149.192Z" fill="white"/>
</svg>